<?xml version="1.0" encoding="UTF-8" standalone="no"?>
<!DOCTYPE svg PUBLIC "-//W3C//DTD SVG 1.1//EN" "http://www.w3.org/Graphics/SVG/1.1/DTD/svg11.dtd">
<svg width="100%" height="100%" viewBox="0 0 776 638" version="1.1" xmlns="http://www.w3.org/2000/svg" xmlns:xlink="http://www.w3.org/1999/xlink" xml:space="preserve" xmlns:serif="http://www.serif.com/" style="fill-rule:evenodd;clip-rule:evenodd;stroke-linejoin:round;stroke-miterlimit:2;">
    <g transform="matrix(1,0,0,1,-12374.7,-235.718)">
        <g id="Artboard4" transform="matrix(1,0,0,1,-0.207349,0)">
            <rect x="11148.2" y="0" width="3507.87" height="2480.32" style="fill:none;"/>
            <g transform="matrix(1,0,0,1,8510.22,5.68434e-14)">
                <g>
                    <g transform="matrix(1,0,0,1,-436.629,-334.776)">
                        <g transform="matrix(266.667,0,0,266.667,4701.11,1152.23)">
                        </g>
                        <text x="4547.73px" y="1152.23px" style="font-family:'ArialMT', 'Arial', sans-serif;font-size:266.667px;fill:rgb(161,7,13);stroke:rgb(161,7,13);stroke-width:6.25px;">β</text>
                    </g>
                    <g transform="matrix(4.16667,0,0,4.16667,3977.32,764.227)">
                        <path d="M0,-22.963L-17.787,-22.963L-17.787,-14.445L-3.729,-14.445L-3.729,-7.347L-17.787,-7.347L-17.787,7.517L-27.029,7.517L-27.029,-30.48L0,-30.48L0,-22.963Z" style="fill:rgb(161,7,13);fill-rule:nonzero;"/>
                    </g>
                    <g transform="matrix(4.16667,0,0,4.16667,4022.27,699.05)">
                        <path d="M0,8.323L8.051,8.323L4.061,-5.01L0,8.323ZM10.163,-14.837L22.057,23.16L12.49,23.16L10.149,15.338L-2.136,15.338L-4.517,23.16L-12.321,23.16L-0.143,-14.837L10.163,-14.837Z" style="fill:rgb(161,7,13);fill-rule:nonzero;"/>
                    </g>
                    <g transform="matrix(4.16667,0,0,4.16667,2851.78,-13.1854)">
                        <rect x="341.056" y="172.078" width="13.306" height="6.041" style="fill:rgb(51,169,167);"/>
                    </g>
                    <g transform="matrix(4.16667,0,0,4.16667,4395.16,769.281)">
                        <path d="M0,-25.387C-1.425,-25.387 -2.54,-25.002 -3.345,-24.232C-4.149,-23.462 -4.552,-22.446 -4.552,-21.184C-4.552,-18.325 -3.025,-16.897 0.027,-16.897C1.507,-16.897 2.668,-17.314 3.51,-18.15C4.353,-18.985 4.773,-19.995 4.773,-21.184C4.773,-22.297 4.375,-23.276 3.58,-24.12C2.784,-24.965 1.591,-25.387 0,-25.387M-5.526,-1.364C-5.86,-1.364 -6.282,-1.141 -6.793,-0.696C-7.304,-0.25 -7.559,0.288 -7.559,0.919C-7.559,2.18 -6.751,2.969 -5.137,3.285C-3.522,3.6 -1.629,3.759 0.542,3.759C3.382,3.759 5.372,3.545 6.513,3.118C7.654,2.691 8.225,2.005 8.225,1.058C8.225,0.335 7.747,-0.223 6.791,-0.613C5.835,-1.002 3.288,-1.197 -0.85,-1.197L-2.52,-1.169C-3.541,-1.169 -4.228,-1.197 -4.58,-1.252C-4.97,-1.326 -5.285,-1.364 -5.526,-1.364M16.158,-28.644C15.286,-28.829 14.553,-28.922 13.959,-28.922C12.122,-28.922 11.046,-28.106 10.73,-26.473C12.233,-24.896 12.985,-23.114 12.985,-21.128C12.985,-18.474 11.876,-16.358 9.658,-14.782C7.44,-13.203 4.244,-12.415 0.069,-12.415C-1.416,-12.415 -2.863,-12.555 -4.273,-12.836C-5.22,-12.279 -5.693,-11.564 -5.693,-10.691C-5.693,-9.725 -5.294,-9.084 -4.496,-8.769C-3.698,-8.453 -1.778,-8.221 1.266,-8.073C5.59,-7.85 8.568,-7.58 10.201,-7.265C11.834,-6.95 13.208,-6.189 14.321,-4.983C15.435,-3.776 15.991,-2.273 15.991,-0.473C15.991,2.106 14.799,4.287 12.414,6.068C10.029,7.85 5.804,8.741 -0.265,8.741C-5.963,8.741 -9.804,8.123 -11.789,6.887C-13.775,5.652 -14.768,4.087 -14.768,2.191C-14.768,-0.317 -13.163,-2.007 -9.952,-2.881C-12.328,-4.069 -13.516,-5.739 -13.516,-7.892C-13.516,-10.582 -11.642,-12.679 -7.893,-14.183C-11.215,-15.554 -12.875,-17.844 -12.875,-21.052C-12.875,-23.666 -11.729,-25.789 -9.438,-27.421C-7.146,-29.053 -3.977,-29.869 0.069,-29.869C2.63,-29.869 5.107,-29.46 7.501,-28.644C7.668,-30.24 8.137,-31.553 8.907,-32.583C9.677,-33.613 11.314,-34.128 13.82,-34.128C14.637,-34.128 15.416,-34.054 16.158,-33.906L16.158,-28.644Z" style="fill:rgb(161,7,13);fill-rule:nonzero;"/>
                    </g>
                    <g transform="matrix(4.16667,0,0,4.16667,4542.4,713.953)">
                        <path d="M0,1.17C-5.79,1.745 -8.685,3.499 -8.685,6.431C-8.685,7.415 -8.38,8.264 -7.77,8.979C-7.158,9.692 -6.289,10.05 -5.161,10.05C-3.699,10.05 -2.475,9.442 -1.484,8.227C-0.495,7.012 0,5.513 0,3.731L0,1.17ZM8.797,14.643L0.752,14.643C0.491,13.529 0.362,12.064 0.362,10.245C-1.046,12.249 -2.45,13.581 -3.849,14.239C-5.247,14.898 -6.836,15.228 -8.615,15.228C-11.247,15.228 -13.373,14.514 -14.994,13.084C-16.615,11.655 -17.426,9.734 -17.426,7.322C-17.426,5.559 -16.953,3.936 -16.008,2.45C-15.063,0.966 -13.544,-0.198 -11.45,-1.043C-9.356,-1.888 -5.54,-2.514 0,-2.922L0,-4.536C0,-7.265 -1.36,-8.629 -4.079,-8.629C-6.983,-8.629 -8.603,-7.265 -8.936,-4.536L-16.591,-5.261C-16.089,-8.452 -14.577,-10.717 -12.053,-12.053C-9.529,-13.389 -6.672,-14.058 -3.479,-14.058C-1.568,-14.058 0.232,-13.835 1.921,-13.389C3.609,-12.943 4.928,-12.275 5.874,-11.385C6.82,-10.494 7.46,-9.552 7.795,-8.559C8.129,-7.566 8.296,-5.835 8.296,-3.367L8.296,9.382C8.296,11.831 8.463,13.585 8.797,14.643" style="fill:rgb(161,7,13);fill-rule:nonzero;"/>
                    </g>
                    <g transform="matrix(4.16667,0,0,4.16667,2851.78,-13.1937)">
                        <rect x="420.891" y="156.101" width="8.294" height="37.997" style="fill:rgb(161,7,13);"/>
                    </g>
                </g>
                <g transform="matrix(1.3235,0,0,1.3235,-1362.8,-185.781)">
                    <g transform="matrix(-0.965926,-0.258819,-0.258819,0.965926,8861.29,1224.8)">
                        <g transform="matrix(4.16667,0,0,4.16667,4671.24,489.031)">
                            <path d="M0,-29.763C-1.137,-29.747 -2.26,-29.616 -3.389,-29.491C-3.994,-29.423 -4.602,-29.359 -5.21,-29.336C-5.72,-29.317 -6.472,-29.174 -6.487,-29.873C-6.507,-30.816 -6.52,-31.705 -6.754,-32.628C-6.979,-33.518 -7.317,-34.375 -7.726,-35.195C-9.459,-38.675 -12.385,-41.571 -13.43,-45.386C-13.575,-45.915 -14.395,-45.953 -14.439,-45.342C-14.606,-43.064 -14.768,-40.659 -15.883,-38.613C-16.41,-37.645 -17.103,-36.779 -17.589,-35.786C-17.885,-35.182 -18.059,-34.544 -18.215,-33.892C-18.593,-32.306 -18.882,-30.699 -19.193,-29.099C-19.454,-27.755 -19.64,-26.327 -20.116,-25.037C-20.281,-24.591 -20.865,-23.3 -21.445,-23.869C-21.447,-23.871 -21.448,-23.872 -21.45,-23.873C-21.45,-23.874 -21.451,-23.875 -21.451,-23.875C-21.477,-23.914 -21.5,-23.956 -21.522,-23.997C-21.593,-24.127 -21.663,-24.258 -21.73,-24.39C-22.171,-25.259 -22.564,-26.153 -22.96,-27.043C-24.151,-29.724 -25.294,-32.426 -26.448,-35.123C-27.496,-37.57 -28.486,-40.064 -29.679,-42.446C-29.928,-42.945 -30.77,-42.716 -30.641,-42.139C-30.453,-41.298 -30.401,-40.453 -30.514,-39.598C-30.589,-39.026 -30.873,-37.135 -31.727,-37.255C-32.06,-37.302 -32.231,-37.733 -32.388,-37.989L-33.198,-39.322C-33.757,-40.242 -34.316,-41.162 -34.875,-42.082C-35.137,-42.512 -35.764,-42.43 -35.844,-41.908C-35.978,-41.024 -36.877,-40.539 -37.693,-40.434C-38.707,-40.303 -39.707,-40.777 -40.578,-41.241C-42.265,-42.14 -44.043,-43.215 -45.992,-42.619C-46.118,-42.63 -46.226,-42.582 -46.306,-42.5C-46.551,-42.347 -46.543,-42.047 -46.395,-41.834C-46.346,-41.743 -46.268,-41.663 -46.156,-41.609C-43.438,-40.283 -42.51,-37.224 -42.149,-34.423C-42.043,-33.603 -41.989,-32.777 -41.963,-31.951C-41.941,-31.253 -41.735,-30.166 -42.12,-29.543C-43.006,-28.108 -45.025,-29.304 -46,-29.925C-46.482,-30.233 -47.051,-29.621 -46.673,-29.171C-45.129,-27.334 -43.584,-25.496 -42.041,-23.659C-40.603,-21.95 -38.886,-20.175 -38.403,-17.918C-38.208,-17.008 -38.213,-16.045 -38.565,-15.173C-38.75,-14.717 -39.037,-14.276 -39.457,-14.007C-39.951,-13.691 -40.503,-13.797 -41.046,-13.9C-42.968,-14.262 -44.838,-14.974 -46.527,-15.956C-48.421,-17.057 -50.089,-18.488 -51.466,-20.191C-51.696,-20.475 -52.231,-20.399 -52.332,-20.029C-52.773,-18.399 -54.543,-17.596 -56.133,-17.689C-58.108,-17.803 -59.828,-19.034 -61.395,-20.124C-61.794,-20.402 -62.395,-19.936 -62.143,-19.485C-61.125,-17.662 -60.089,-15.85 -59.09,-14.018C-58.663,-13.233 -58.196,-12.356 -58.225,-11.435C-58.249,-10.648 -58.68,-9.793 -59.504,-9.621C-59.979,-9.522 -60.094,-8.794 -59.586,-8.639C-58.016,-8.16 -56.142,-7.615 -55.375,-6.008C-55.048,-5.324 -54.969,-4.518 -55.392,-3.855C-55.873,-3.099 -56.787,-2.727 -57.574,-2.384C-58.104,-2.154 -57.83,-1.319 -57.267,-1.422C-53.037,-2.195 -48.521,-1.385 -44.879,0.928C-43.886,1.559 -42.848,2.389 -42.441,3.538C-42.22,4.162 -42.296,4.559 -42.623,5.102C-43.375,6.354 -44.437,7.43 -45.422,8.498C-46.353,9.507 -47.523,10.531 -48.134,11.782C-48.35,12.225 -47.8,12.542 -47.436,12.413C-43.676,11.091 -39.804,11.064 -35.874,11.26C-32.303,11.438 -28.735,11.527 -25.321,10.292C-23.606,9.672 -20.572,8.14 -19.191,6.877C-17.775,9.419 -18.095,10.257 -16.679,12.799C-16.411,13.279 -16.349,13.77 -15.693,13.57C-14.894,13.326 -15.161,12.658 -15.191,12.65L-16.343,9.687C-16.833,8.495 -17.323,7.301 -17.812,6.109C-16.131,6.097 -14.439,5.754 -12.838,5.283C-11.142,4.785 -9.456,4.138 -8.062,3.027C-6.333,1.649 -4.868,-0.041 -3.607,-1.851C-2.713,-3.133 -1.987,-4.554 -0.969,-5.746C0.834,-7.859 3.403,-9.234 6.141,-9.638C6.662,-9.715 6.681,-10.441 6.224,-10.619C4.295,-11.377 2.368,-12.134 0.44,-12.891C-0.507,-13.262 -1.453,-13.634 -2.399,-14.005C-3.145,-14.298 -4.168,-14.595 -4.581,-15.347C-4.977,-16.069 -4.454,-16.857 -4.096,-17.477C-3.69,-18.181 -3.362,-18.904 -3.149,-19.69C-2.729,-21.237 -2.632,-22.846 -2.307,-24.412C-1.974,-26.01 -1.43,-28.033 0.175,-28.794C0.604,-28.998 0.525,-29.77 0,-29.763" style="fill:rgb(51,169,167);fill-rule:nonzero;stroke:rgb(74,136,151);stroke-width:0.18px;"/>
                        </g>
                        <g transform="matrix(0,64.2015,64.2015,0,4564.02,414.874)">
                            <ellipse cx="0.5" cy="0" rx="0.5" ry="0.5" style="fill:rgb(181,217,216);stroke:rgb(51,169,167);stroke-width:0.01px;"/>
                        </g>
                    </g>
                    <g transform="matrix(0.965926,-0.258819,0.258819,0.965926,-375.924,1224.8)">
                        <g transform="matrix(4.16667,0,0,4.16667,4671.24,489.031)">
                            <path d="M0,-29.763C-1.137,-29.747 -2.26,-29.616 -3.389,-29.491C-3.994,-29.423 -4.602,-29.359 -5.21,-29.336C-5.72,-29.317 -6.472,-29.174 -6.487,-29.873C-6.507,-30.816 -6.52,-31.705 -6.754,-32.628C-6.979,-33.518 -7.317,-34.375 -7.726,-35.195C-9.459,-38.675 -12.385,-41.571 -13.43,-45.386C-13.575,-45.915 -14.395,-45.953 -14.439,-45.342C-14.606,-43.064 -14.768,-40.659 -15.883,-38.613C-16.41,-37.645 -17.103,-36.779 -17.589,-35.786C-17.885,-35.182 -18.059,-34.544 -18.215,-33.892C-18.593,-32.306 -18.882,-30.699 -19.193,-29.099C-19.454,-27.755 -19.64,-26.327 -20.116,-25.037C-20.281,-24.591 -20.865,-23.3 -21.445,-23.869C-21.447,-23.871 -21.448,-23.872 -21.45,-23.873C-21.45,-23.874 -21.451,-23.875 -21.451,-23.875C-21.477,-23.914 -21.5,-23.956 -21.522,-23.997C-21.593,-24.127 -21.663,-24.258 -21.73,-24.39C-22.171,-25.259 -22.564,-26.153 -22.96,-27.043C-24.151,-29.724 -25.294,-32.426 -26.448,-35.123C-27.496,-37.57 -28.486,-40.064 -29.679,-42.446C-29.928,-42.945 -30.77,-42.716 -30.641,-42.139C-30.453,-41.298 -30.401,-40.453 -30.514,-39.598C-30.589,-39.026 -30.873,-37.135 -31.727,-37.255C-32.06,-37.302 -32.231,-37.733 -32.388,-37.989L-33.198,-39.322C-33.757,-40.242 -34.316,-41.162 -34.875,-42.082C-35.137,-42.512 -35.764,-42.43 -35.844,-41.908C-35.978,-41.024 -36.877,-40.539 -37.693,-40.434C-38.707,-40.303 -39.707,-40.777 -40.578,-41.241C-42.265,-42.14 -44.043,-43.215 -45.992,-42.619C-46.118,-42.63 -46.226,-42.582 -46.306,-42.5C-46.551,-42.347 -46.543,-42.047 -46.395,-41.834C-46.346,-41.743 -46.268,-41.663 -46.156,-41.609C-43.438,-40.283 -42.51,-37.224 -42.149,-34.423C-42.043,-33.603 -41.989,-32.777 -41.963,-31.951C-41.941,-31.253 -41.735,-30.166 -42.12,-29.543C-43.006,-28.108 -45.025,-29.304 -46,-29.925C-46.482,-30.233 -47.051,-29.621 -46.673,-29.171C-45.129,-27.334 -43.584,-25.496 -42.041,-23.659C-40.603,-21.95 -38.886,-20.175 -38.403,-17.918C-38.208,-17.008 -38.213,-16.045 -38.565,-15.173C-38.75,-14.717 -39.037,-14.276 -39.457,-14.007C-39.951,-13.691 -40.503,-13.797 -41.046,-13.9C-42.968,-14.262 -44.838,-14.974 -46.527,-15.956C-48.421,-17.057 -50.089,-18.488 -51.466,-20.191C-51.696,-20.475 -52.231,-20.399 -52.332,-20.029C-52.773,-18.399 -54.543,-17.596 -56.133,-17.689C-58.108,-17.803 -59.828,-19.034 -61.395,-20.124C-61.794,-20.402 -62.395,-19.936 -62.143,-19.485C-61.125,-17.662 -60.089,-15.85 -59.09,-14.018C-58.663,-13.233 -58.196,-12.356 -58.225,-11.435C-58.249,-10.648 -58.68,-9.793 -59.504,-9.621C-59.979,-9.522 -60.094,-8.794 -59.586,-8.639C-58.016,-8.16 -56.142,-7.615 -55.375,-6.008C-55.048,-5.324 -54.969,-4.518 -55.392,-3.855C-55.873,-3.099 -56.787,-2.727 -57.574,-2.384C-58.104,-2.154 -57.83,-1.319 -57.267,-1.422C-53.037,-2.195 -48.521,-1.385 -44.879,0.928C-43.886,1.559 -42.848,2.389 -42.441,3.538C-42.22,4.162 -42.296,4.559 -42.623,5.102C-43.375,6.354 -44.437,7.43 -45.422,8.498C-46.353,9.507 -47.523,10.531 -48.134,11.782C-48.35,12.225 -47.8,12.542 -47.436,12.413C-43.676,11.091 -39.804,11.064 -35.874,11.26C-32.303,11.438 -28.735,11.527 -25.321,10.292C-23.606,9.672 -20.572,8.14 -19.191,6.877C-17.775,9.419 -18.095,10.257 -16.679,12.799C-16.411,13.279 -16.349,13.77 -15.693,13.57C-14.894,13.326 -15.161,12.658 -15.191,12.65L-16.343,9.687C-16.833,8.495 -17.323,7.301 -17.812,6.109C-16.131,6.097 -14.439,5.754 -12.838,5.283C-11.142,4.785 -9.456,4.138 -8.062,3.027C-6.333,1.649 -4.868,-0.041 -3.607,-1.851C-2.713,-3.133 -1.987,-4.554 -0.969,-5.746C0.834,-7.859 3.403,-9.234 6.141,-9.638C6.662,-9.715 6.681,-10.441 6.224,-10.619C4.295,-11.377 2.368,-12.134 0.44,-12.891C-0.507,-13.262 -1.453,-13.634 -2.399,-14.005C-3.145,-14.298 -4.168,-14.595 -4.581,-15.347C-4.977,-16.069 -4.454,-16.857 -4.096,-17.477C-3.69,-18.181 -3.362,-18.904 -3.149,-19.69C-2.729,-21.237 -2.632,-22.846 -2.307,-24.412C-1.974,-26.01 -1.43,-28.033 0.175,-28.794C0.604,-28.998 0.525,-29.77 0,-29.763" style="fill:rgb(161,7,13);fill-rule:nonzero;"/>
                        </g>
                        <g transform="matrix(0,64.2015,64.2015,0,4564.02,414.874)">
                            <ellipse cx="0.5" cy="0" rx="0.5" ry="0.5" style="fill:rgb(15,72,188);"/>
                        </g>
                    </g>
                </g>
            </g>
        </g>
    </g>
</svg>
